solid Part 2. STL generated by ONSHAPE BY PTC INC, 1.212. Units = meters
   facet normal 0 1 0
      outer loop
         vertex -0.080343 -0.02572 0.0085
         vertex -0.079993 -0.02572 0.0085
         vertex -0.079993 -0.02572 0
      endloop
   endfacet
   facet normal 0 1 0
      outer loop
         vertex -0.079993 -0.02572 0
         vertex -0.080343 -0.02572 0
         vertex -0.080343 -0.02572 0.0085
      endloop
   endfacet
   facet normal 0 0 -1
      outer loop
         vertex -0.080343 -0.02572 0
         vertex -0.079993 -0.02572 0
         vertex -0.079993 -0.02652 0
      endloop
   endfacet
   facet normal 0 0 -1
      outer loop
         vertex -0.079993 -0.02652 0
         vertex -0.080343 -0.02652 0
         vertex -0.080343 -0.02572 0
      endloop
   endfacet
   facet normal 0 -1 0
      outer loop
         vertex -0.080343 -0.02652 0
         vertex -0.079993 -0.02652 0
         vertex -0.079993 -0.02652 0.0085
      endloop
   endfacet
   facet normal 0 -1 0
      outer loop
         vertex -0.079993 -0.02652 0.0085
         vertex -0.080343 -0.02652 0.0085
         vertex -0.080343 -0.02652 0
      endloop
   endfacet
   facet normal -1 0 0
      outer loop
         vertex -0.080343 -0.02652 0.0085
         vertex -0.080343 -0.02572 0.0085
         vertex -0.080343 -0.02572 0
      endloop
   endfacet
   facet normal -1 0 0
      outer loop
         vertex -0.080343 -0.02572 0
         vertex -0.080343 -0.02652 0
         vertex -0.080343 -0.02652 0.0085
      endloop
   endfacet
   facet normal 1 0 0
      outer loop
         vertex -0.079993 -0.02652 0
         vertex -0.079993 -0.02572 0
         vertex -0.079993 -0.02572 0.0085
      endloop
   endfacet
   facet normal 1 0 0
      outer loop
         vertex -0.079993 -0.02572 0.0085
         vertex -0.079993 -0.02652 0.0085
         vertex -0.079993 -0.02652 0
      endloop
   endfacet
   facet normal 0 0 1
      outer loop
         vertex -0.080343 -0.02652 0.0085
         vertex -0.079993 -0.02652 0.0085
         vertex -0.079993 -0.02572 0.0085
      endloop
   endfacet
   facet normal 0 0 1
      outer loop
         vertex -0.079993 -0.02572 0.0085
         vertex -0.080343 -0.02572 0.0085
         vertex -0.080343 -0.02652 0.0085
      endloop
   endfacet
endsolid Part 2. Units = meters