solid Part 3. STL generated by ONSHAPE BY PTC INC, 1.212. Units = meters
   facet normal 0 1 0
      outer loop
         vertex -0.080343 0.0273 0.0085
         vertex -0.079993 0.0273 0.0085
         vertex -0.079993 0.0273 0
      endloop
   endfacet
   facet normal 0 1 0
      outer loop
         vertex -0.079993 0.0273 0
         vertex -0.080343 0.0273 0
         vertex -0.080343 0.0273 0.0085
      endloop
   endfacet
   facet normal 0 0 -1
      outer loop
         vertex -0.080343 0.0273 0
         vertex -0.079993 0.0273 0
         vertex -0.079993 0.0264986 0
      endloop
   endfacet
   facet normal 0 0 -1
      outer loop
         vertex -0.079993 0.0264986 0
         vertex -0.080343 0.0264986 0
         vertex -0.080343 0.0273 0
      endloop
   endfacet
   facet normal 0 -1 0
      outer loop
         vertex -0.080343 0.0264986 0
         vertex -0.079993 0.0264986 0
         vertex -0.079993 0.0264986 0.0085
      endloop
   endfacet
   facet normal 0 -1 0
      outer loop
         vertex -0.079993 0.0264986 0.0085
         vertex -0.080343 0.0264986 0.0085
         vertex -0.080343 0.0264986 0
      endloop
   endfacet
   facet normal -1 0 0
      outer loop
         vertex -0.080343 0.0264986 0.0085
         vertex -0.080343 0.0273 0.0085
         vertex -0.080343 0.0273 0
      endloop
   endfacet
   facet normal -1 0 0
      outer loop
         vertex -0.080343 0.0273 0
         vertex -0.080343 0.0264986 0
         vertex -0.080343 0.0264986 0.0085
      endloop
   endfacet
   facet normal 1 0 0
      outer loop
         vertex -0.079993 0.0264986 0
         vertex -0.079993 0.0273 0
         vertex -0.079993 0.0273 0.0085
      endloop
   endfacet
   facet normal 1 0 0
      outer loop
         vertex -0.079993 0.0273 0.0085
         vertex -0.079993 0.0264986 0.0085
         vertex -0.079993 0.0264986 0
      endloop
   endfacet
   facet normal 0 0 1
      outer loop
         vertex -0.080343 0.0264986 0.0085
         vertex -0.079993 0.0264986 0.0085
         vertex -0.079993 0.0273 0.0085
      endloop
   endfacet
   facet normal 0 0 1
      outer loop
         vertex -0.079993 0.0273 0.0085
         vertex -0.080343 0.0273 0.0085
         vertex -0.080343 0.0264986 0.0085
      endloop
   endfacet
endsolid Part 3. Units = meters