solid Breadboard. STL generated by ONSHAPE BY PTC INC, 1.212. Units = meters
   facet normal 0 0 1
      outer loop
         vertex 0.02675 -0.04075 0.009
         vertex 0.02675 0.04075 0.009
         vertex 0.001 0.04075 0.009
      endloop
   endfacet
   facet normal 0 0 1
      outer loop
         vertex 0.001 0.04075 0.009
         vertex 0.001 -0.04075 0.009
         vertex 0.02675 -0.04075 0.009
      endloop
   endfacet
   facet normal 1 -3.40559e-16 0
      outer loop
         vertex 0.02675 0.04075 0.009
         vertex 0.02675 -0.04075 0.009
         vertex 0.02675 -0.04075 0
      endloop
   endfacet
   facet normal 1 -3.40559e-16 0
      outer loop
         vertex 0.02675 -0.04075 0
         vertex 0.02675 0.04075 0
         vertex 0.02675 0.04075 0.009
      endloop
   endfacet
   facet normal -1 -5.32124e-18 0
      outer loop
         vertex 0.001 -0.04075 0.006
         vertex 0.001 -0.04075 0.009
         vertex 0.001 0.04075 0.009
      endloop
   endfacet
   facet normal -1 -5.32124e-18 0
      outer loop
         vertex 0.001 0.04075 0.009
         vertex 0.001 0.04075 0.006
         vertex 0.001 -0.04075 0.006
      endloop
   endfacet
   facet normal 0 0 1
      outer loop
         vertex 0.001 -0.04075 0.006
         vertex 0.001 0.04075 0.006
         vertex -0.001 0.04075 0.006
      endloop
   endfacet
   facet normal 0 0 1
      outer loop
         vertex -0.001 0.04075 0.006
         vertex -0.001 -0.04075 0.006
         vertex 0.001 -0.04075 0.006
      endloop
   endfacet
   facet normal 1 -3.4588e-16 0
      outer loop
         vertex -0.001 0.04075 0.006
         vertex -0.001 0.04075 0.009
         vertex -0.001 -0.04075 0.009
      endloop
   endfacet
   facet normal 1 -3.4588e-16 0
      outer loop
         vertex -0.001 -0.04075 0.009
         vertex -0.001 -0.04075 0.006
         vertex -0.001 0.04075 0.006
      endloop
   endfacet
   facet normal 0 1 0
      outer loop
         vertex 0.02675 0.04075 0
         vertex -0.02675 0.04075 0
         vertex -0.001 0.04075 0.006
      endloop
   endfacet
   facet normal 0 1 0
      outer loop
         vertex -0.02675 0.04075 0.009
         vertex -0.001 0.04075 0.009
         vertex -0.001 0.04075 0.006
      endloop
   endfacet
   facet normal 0 1 0
      outer loop
         vertex 0.02675 0.04075 0.009
         vertex 0.02675 0.04075 0
         vertex 0.001 0.04075 0.006
      endloop
   endfacet
   facet normal 0 1 0
      outer loop
         vertex -0.001 0.04075 0.006
         vertex -0.02675 0.04075 0
         vertex -0.02675 0.04075 0.009
      endloop
   endfacet
   facet normal 0 1 0
      outer loop
         vertex -0.001 0.04075 0.006
         vertex 0.001 0.04075 0.006
         vertex 0.02675 0.04075 0
      endloop
   endfacet
   facet normal 0 1 0
      outer loop
         vertex 0.001 0.04075 0.006
         vertex 0.001 0.04075 0.009
         vertex 0.02675 0.04075 0.009
      endloop
   endfacet
   facet normal 0 0 1
      outer loop
         vertex -0.02675 0.04075 0.009
         vertex -0.02675 -0.04075 0.009
         vertex -0.001 -0.04075 0.009
      endloop
   endfacet
   facet normal 0 0 1
      outer loop
         vertex -0.001 -0.04075 0.009
         vertex -0.001 0.04075 0.009
         vertex -0.02675 0.04075 0.009
      endloop
   endfacet
   facet normal -1 2.89121e-16 0
      outer loop
         vertex -0.02675 -0.04075 0
         vertex -0.02675 -0.04075 0.009
         vertex -0.02675 -0.02875 0.0042
      endloop
   endfacet
   facet normal -1 2.89121e-16 0
      outer loop
         vertex -0.02675 -0.04075 0.009
         vertex -0.02675 0.02525 0.0042
         vertex -0.02675 -0.02525 0.0042
      endloop
   endfacet
   facet normal -1 2.89121e-16 0
      outer loop
         vertex -0.02675 -0.02525 0.0042
         vertex -0.02675 -0.02875 0.0042
         vertex -0.02675 -0.04075 0.009
      endloop
   endfacet
   facet normal -1 2.89121e-16 0
      outer loop
         vertex -0.02675 -0.02525 0
         vertex -0.02675 -0.02525 0.0042
         vertex -0.02675 0.02525 0.0042
      endloop
   endfacet
   facet normal -1 2.89121e-16 0
      outer loop
         vertex -0.02675 0.02525 0.0042
         vertex -0.02675 0.02525 0
         vertex -0.02675 -0.02525 0
      endloop
   endfacet
   facet normal -1 2.89121e-16 0
      outer loop
         vertex -0.02675 0.04075 0.009
         vertex -0.02675 0.02875 0.0042
         vertex -0.02675 0.02525 0.0042
      endloop
   endfacet
   facet normal -1 2.89121e-16 0
      outer loop
         vertex -0.02675 0.02525 0.0042
         vertex -0.02675 -0.04075 0.009
         vertex -0.02675 0.04075 0.009
      endloop
   endfacet
   facet normal -1 2.89121e-16 0
      outer loop
         vertex -0.02675 0.04075 0
         vertex -0.02675 0.02875 0
         vertex -0.02675 0.02875 0.0042
      endloop
   endfacet
   facet normal -1 2.89121e-16 0
      outer loop
         vertex -0.02675 0.02875 0.0042
         vertex -0.02675 0.04075 0.009
         vertex -0.02675 0.04075 0
      endloop
   endfacet
   facet normal -1 2.89121e-16 0
      outer loop
         vertex -0.02675 -0.02875 0.0042
         vertex -0.02675 -0.02875 0
         vertex -0.02675 -0.04075 0
      endloop
   endfacet
   facet normal 0 0 1
      outer loop
         vertex -0.02825 -0.02875 0.0042
         vertex -0.02675 -0.02875 0.0042
         vertex -0.02675 -0.02525 0.0042
      endloop
   endfacet
   facet normal 0 0 1
      outer loop
         vertex -0.02675 -0.02525 0.0042
         vertex -0.02825 -0.02525 0.0042
         vertex -0.02825 -0.02875 0.0042
      endloop
   endfacet
   facet normal -1 2.89121e-16 0
      outer loop
         vertex -0.02825 -0.02525 0.0042
         vertex -0.02825 -0.02525 0
         vertex -0.02825 -0.02875 0
      endloop
   endfacet
   facet normal -1 2.89121e-16 0
      outer loop
         vertex -0.02825 -0.02875 0
         vertex -0.02825 -0.02875 0.0042
         vertex -0.02825 -0.02525 0.0042
      endloop
   endfacet
   facet normal 0 -1 0
      outer loop
         vertex -0.02825 -0.02875 0.0042
         vertex -0.02825 -0.02875 0
         vertex -0.02675 -0.02875 0
      endloop
   endfacet
   facet normal 0 -1 0
      outer loop
         vertex -0.02675 -0.02875 0
         vertex -0.02675 -0.02875 0.0042
         vertex -0.02825 -0.02875 0.0042
      endloop
   endfacet
   facet normal 0 1 0
      outer loop
         vertex -0.02675 -0.02525 0.0042
         vertex -0.02675 -0.02525 0
         vertex -0.02825 -0.02525 0
      endloop
   endfacet
   facet normal 0 1 0
      outer loop
         vertex -0.02825 -0.02525 0
         vertex -0.02825 -0.02525 0.0042
         vertex -0.02675 -0.02525 0.0042
      endloop
   endfacet
   facet normal 0 0 1
      outer loop
         vertex -0.02825 0.02525 0.0042
         vertex -0.02675 0.02525 0.0042
         vertex -0.02675 0.02875 0.0042
      endloop
   endfacet
   facet normal 0 0 1
      outer loop
         vertex -0.02675 0.02875 0.0042
         vertex -0.02825 0.02875 0.0042
         vertex -0.02825 0.02525 0.0042
      endloop
   endfacet
   facet normal -1 0 0
      outer loop
         vertex -0.02825 0.02875 0.0042
         vertex -0.02825 0.02875 0
         vertex -0.02825 0.02525 0
      endloop
   endfacet
   facet normal -1 0 0
      outer loop
         vertex -0.02825 0.02525 0
         vertex -0.02825 0.02525 0.0042
         vertex -0.02825 0.02875 0.0042
      endloop
   endfacet
   facet normal 0 -1 0
      outer loop
         vertex -0.02825 0.02525 0.0042
         vertex -0.02825 0.02525 0
         vertex -0.02675 0.02525 0
      endloop
   endfacet
   facet normal 0 -1 0
      outer loop
         vertex -0.02675 0.02525 0
         vertex -0.02675 0.02525 0.0042
         vertex -0.02825 0.02525 0.0042
      endloop
   endfacet
   facet normal 0 1 0
      outer loop
         vertex -0.02675 0.02875 0.0042
         vertex -0.02675 0.02875 0
         vertex -0.02825 0.02875 0
      endloop
   endfacet
   facet normal 0 1 0
      outer loop
         vertex -0.02825 0.02875 0
         vertex -0.02825 0.02875 0.0042
         vertex -0.02675 0.02875 0.0042
      endloop
   endfacet
   facet normal 0 0 -1
      outer loop
         vertex -0.02675 -0.02875 0
         vertex -0.02025 -0.04075 0
         vertex -0.02375 -0.04075 0
      endloop
   endfacet
   facet normal 0 0 -1
      outer loop
         vertex -0.02375 -0.04075 0
         vertex -0.02675 -0.04075 0
         vertex -0.02675 -0.02875 0
      endloop
   endfacet
   facet normal 0 0 -1
      outer loop
         vertex -0.02675 -0.02875 0
         vertex -0.02825 -0.02525 0
         vertex -0.02025 -0.04075 0
      endloop
   endfacet
   facet normal 0 0 -1
      outer loop
         vertex -0.02375 -0.04225 0
         vertex -0.02375 -0.04075 0
         vertex -0.02025 -0.04075 0
      endloop
   endfacet
   facet normal 0 0 -1
      outer loop
         vertex -0.02025 -0.04075 0
         vertex -0.02825 -0.02525 0
         vertex -0.02675 -0.02525 0
      endloop
   endfacet
   facet normal 0 0 -1
      outer loop
         vertex -0.02675 0.02525 0
         vertex 0.02025 -0.04075 0
         vertex 0.00175874 -0.04075 0
      endloop
   endfacet
   facet normal 0 0 -1
      outer loop
         vertex -0.02025 -0.04075 0
         vertex -0.02025 -0.04225 0
         vertex -0.02375 -0.04225 0
      endloop
   endfacet
   facet normal 0 0 -1
      outer loop
         vertex -0.02675 -0.02525 0
         vertex 0.00175874 -0.04075 0
         vertex -0.00174126 -0.04075 0
      endloop
   endfacet
   facet normal 0 0 -1
      outer loop
         vertex -0.02675 0.02525 0
         vertex 0.02375 -0.04075 0
         vertex 0.02025 -0.04075 0
      endloop
   endfacet
   facet normal 0 0 -1
      outer loop
         vertex -0.02675 -0.02525 0
         vertex -0.00174126 -0.04075 0
         vertex -0.02025 -0.04075 0
      endloop
   endfacet
   facet normal 0 0 -1
      outer loop
         vertex -0.00174126 -0.04225 0
         vertex -0.00174126 -0.04075 0
         vertex 0.00175874 -0.04075 0
      endloop
   endfacet
   facet normal 0 0 -1
      outer loop
         vertex 0.00175874 -0.04075 0
         vertex -0.02675 -0.02525 0
         vertex -0.02675 0.02525 0
      endloop
   endfacet
   facet normal 0 0 -1
      outer loop
         vertex 0.00175874 -0.04075 0
         vertex 0.00175874 -0.04225 0
         vertex -0.00174126 -0.04225 0
      endloop
   endfacet
   facet normal 0 0 -1
      outer loop
         vertex -0.02675 0.02525 0
         vertex -0.02825 0.02875 0
         vertex 0.02375 -0.04075 0
      endloop
   endfacet
   facet normal 0 0 -1
      outer loop
         vertex -0.02675 0.02525 0
         vertex -0.02825 0.02525 0
         vertex -0.02825 0.02875 0
      endloop
   endfacet
   facet normal 0 0 -1
      outer loop
         vertex 0.02025 -0.04225 0
         vertex 0.02025 -0.04075 0
         vertex 0.02375 -0.04075 0
      endloop
   endfacet
   facet normal 0 0 -1
      outer loop
         vertex 0.02675 0.04075 0
         vertex 0.02675 -0.04075 0
         vertex -0.02675 0.02875 0
      endloop
   endfacet
   facet normal 0 0 -1
      outer loop
         vertex 0.02375 -0.04075 0
         vertex -0.02825 0.02875 0
         vertex -0.02675 0.02875 0
      endloop
   endfacet
   facet normal 0 0 -1
      outer loop
         vertex 0.02375 -0.04075 0
         vertex 0.02375 -0.04225 0
         vertex 0.02025 -0.04225 0
      endloop
   endfacet
   facet normal 0 0 -1
      outer loop
         vertex -0.02675 0.02875 0
         vertex 0.02675 -0.04075 0
         vertex 0.02375 -0.04075 0
      endloop
   endfacet
   facet normal 0 0 -1
      outer loop
         vertex -0.02675 0.02875 0
         vertex -0.02675 0.04075 0
         vertex 0.02675 0.04075 0
      endloop
   endfacet
   facet normal 0 0 -1
      outer loop
         vertex -0.02675 -0.02875 0
         vertex -0.02825 -0.02875 0
         vertex -0.02825 -0.02525 0
      endloop
   endfacet
   facet normal 0 -1 0
      outer loop
         vertex -0.02375 -0.04225 0.0042
         vertex -0.02375 -0.04225 0
         vertex -0.02025 -0.04225 0
      endloop
   endfacet
   facet normal 0 -1 0
      outer loop
         vertex -0.02025 -0.04225 0
         vertex -0.02025 -0.04225 0.0042
         vertex -0.02375 -0.04225 0.0042
      endloop
   endfacet
   facet normal 0 0 1
      outer loop
         vertex -0.02375 -0.04225 0.0042
         vertex -0.02025 -0.04225 0.0042
         vertex -0.02025 -0.04075 0.0042
      endloop
   endfacet
   facet normal 0 0 1
      outer loop
         vertex -0.02025 -0.04075 0.0042
         vertex -0.02375 -0.04075 0.0042
         vertex -0.02375 -0.04225 0.0042
      endloop
   endfacet
   facet normal 1 0 0
      outer loop
         vertex -0.02025 -0.04225 0.0042
         vertex -0.02025 -0.04225 0
         vertex -0.02025 -0.04075 0
      endloop
   endfacet
   facet normal 1 0 0
      outer loop
         vertex -0.02025 -0.04075 0
         vertex -0.02025 -0.04075 0.0042
         vertex -0.02025 -0.04225 0.0042
      endloop
   endfacet
   facet normal -1 0 0
      outer loop
         vertex -0.02375 -0.04075 0.0042
         vertex -0.02375 -0.04075 0
         vertex -0.02375 -0.04225 0
      endloop
   endfacet
   facet normal -1 0 0
      outer loop
         vertex -0.02375 -0.04225 0
         vertex -0.02375 -0.04225 0.0042
         vertex -0.02375 -0.04075 0.0042
      endloop
   endfacet
   facet normal 0 -1 0
      outer loop
         vertex -0.00174126 -0.04225 0.0042
         vertex -0.00174126 -0.04225 0
         vertex 0.00175874 -0.04225 0
      endloop
   endfacet
   facet normal 0 -1 0
      outer loop
         vertex 0.00175874 -0.04225 0
         vertex 0.00175874 -0.04225 0.0042
         vertex -0.00174126 -0.04225 0.0042
      endloop
   endfacet
   facet normal 0 0 1
      outer loop
         vertex -0.00174126 -0.04225 0.0042
         vertex 0.00175874 -0.04225 0.0042
         vertex 0.00175874 -0.04075 0.0042
      endloop
   endfacet
   facet normal 0 0 1
      outer loop
         vertex 0.00175874 -0.04075 0.0042
         vertex -0.00174126 -0.04075 0.0042
         vertex -0.00174126 -0.04225 0.0042
      endloop
   endfacet
   facet normal 1 0 0
      outer loop
         vertex 0.00175874 -0.04225 0.0042
         vertex 0.00175874 -0.04225 0
         vertex 0.00175874 -0.04075 0
      endloop
   endfacet
   facet normal 1 0 0
      outer loop
         vertex 0.00175874 -0.04075 0
         vertex 0.00175874 -0.04075 0.0042
         vertex 0.00175874 -0.04225 0.0042
      endloop
   endfacet
   facet normal -1 0 0
      outer loop
         vertex -0.00174126 -0.04075 0.0042
         vertex -0.00174126 -0.04075 0
         vertex -0.00174126 -0.04225 0
      endloop
   endfacet
   facet normal -1 0 0
      outer loop
         vertex -0.00174126 -0.04225 0
         vertex -0.00174126 -0.04225 0.0042
         vertex -0.00174126 -0.04075 0.0042
      endloop
   endfacet
   facet normal 0 -1 0
      outer loop
         vertex -0.02025 -0.04075 0.0042
         vertex -0.00174126 -0.04075 0.0042
         vertex -0.001 -0.04075 0.006
      endloop
   endfacet
   facet normal 0 -1 0
      outer loop
         vertex -0.00174126 -0.04075 0
         vertex -0.00174126 -0.04075 0.0042
         vertex -0.02025 -0.04075 0.0042
      endloop
   endfacet
   facet normal 0 -1 0
      outer loop
         vertex 0.02675 -0.04075 0
         vertex 0.02675 -0.04075 0.009
         vertex 0.02375 -0.04075 0.0042
      endloop
   endfacet
   facet normal 0 -1 0
      outer loop
         vertex 0.02675 -0.04075 0.009
         vertex 0.00175874 -0.04075 0.0042
         vertex 0.02025 -0.04075 0.0042
      endloop
   endfacet
   facet normal 0 -1 0
      outer loop
         vertex -0.02025 -0.04075 0.0042
         vertex -0.02025 -0.04075 0
         vertex -0.00174126 -0.04075 0
      endloop
   endfacet
   facet normal 0 -1 0
      outer loop
         vertex -0.02675 -0.04075 0.009
         vertex -0.02375 -0.04075 0.0042
         vertex -0.02025 -0.04075 0.0042
      endloop
   endfacet
   facet normal 0 -1 0
      outer loop
         vertex 0.02025 -0.04075 0.0042
         vertex 0.02375 -0.04075 0.0042
         vertex 0.02675 -0.04075 0.009
      endloop
   endfacet
   facet normal 0 -1 0
      outer loop
         vertex 0.02025 -0.04075 0
         vertex 0.02025 -0.04075 0.0042
         vertex 0.00175874 -0.04075 0.0042
      endloop
   endfacet
   facet normal 0 -1 0
      outer loop
         vertex -0.00174126 -0.04075 0.0042
         vertex 0.00175874 -0.04075 0.0042
         vertex 0.001 -0.04075 0.006
      endloop
   endfacet
   facet normal 0 -1 0
      outer loop
         vertex 0.02675 -0.04075 0.009
         vertex 0.001 -0.04075 0.009
         vertex 0.001 -0.04075 0.006
      endloop
   endfacet
   facet normal 0 -1 0
      outer loop
         vertex -0.02025 -0.04075 0.0042
         vertex -0.001 -0.04075 0.009
         vertex -0.02675 -0.04075 0.009
      endloop
   endfacet
   facet normal 0 -1 0
      outer loop
         vertex -0.02675 -0.04075 0
         vertex -0.02375 -0.04075 0
         vertex -0.02375 -0.04075 0.0042
      endloop
   endfacet
   facet normal 0 -1 0
      outer loop
         vertex 0.00175874 -0.04075 0.0042
         vertex 0.00175874 -0.04075 0
         vertex 0.02025 -0.04075 0
      endloop
   endfacet
   facet normal 0 -1 0
      outer loop
         vertex 0.001 -0.04075 0.006
         vertex 0.00175874 -0.04075 0.0042
         vertex 0.02675 -0.04075 0.009
      endloop
   endfacet
   facet normal 0 -1 0
      outer loop
         vertex -0.02375 -0.04075 0.0042
         vertex -0.02675 -0.04075 0.009
         vertex -0.02675 -0.04075 0
      endloop
   endfacet
   facet normal 0 -1 0
      outer loop
         vertex 0.001 -0.04075 0.006
         vertex -0.001 -0.04075 0.006
         vertex -0.00174126 -0.04075 0.0042
      endloop
   endfacet
   facet normal 0 -1 0
      outer loop
         vertex 0.02375 -0.04075 0.0042
         vertex 0.02375 -0.04075 0
         vertex 0.02675 -0.04075 0
      endloop
   endfacet
   facet normal 0 -1 0
      outer loop
         vertex -0.001 -0.04075 0.006
         vertex -0.001 -0.04075 0.009
         vertex -0.02025 -0.04075 0.0042
      endloop
   endfacet
   facet normal 0 0 1
      outer loop
         vertex 0.02025 -0.04225 0.0042
         vertex 0.02375 -0.04225 0.0042
         vertex 0.02375 -0.04075 0.0042
      endloop
   endfacet
   facet normal 0 0 1
      outer loop
         vertex 0.02375 -0.04075 0.0042
         vertex 0.02025 -0.04075 0.0042
         vertex 0.02025 -0.04225 0.0042
      endloop
   endfacet
   facet normal 1 0 0
      outer loop
         vertex 0.02375 -0.04225 0.0042
         vertex 0.02375 -0.04225 0
         vertex 0.02375 -0.04075 0
      endloop
   endfacet
   facet normal 1 0 0
      outer loop
         vertex 0.02375 -0.04075 0
         vertex 0.02375 -0.04075 0.0042
         vertex 0.02375 -0.04225 0.0042
      endloop
   endfacet
   facet normal -1 0 0
      outer loop
         vertex 0.02025 -0.04075 0.0042
         vertex 0.02025 -0.04075 0
         vertex 0.02025 -0.04225 0
      endloop
   endfacet
   facet normal -1 0 0
      outer loop
         vertex 0.02025 -0.04225 0
         vertex 0.02025 -0.04225 0.0042
         vertex 0.02025 -0.04075 0.0042
      endloop
   endfacet
   facet normal 0 -1 0
      outer loop
         vertex 0.02025 -0.04225 0.0042
         vertex 0.02025 -0.04225 0
         vertex 0.02375 -0.04225 0
      endloop
   endfacet
   facet normal 0 -1 0
      outer loop
         vertex 0.02375 -0.04225 0
         vertex 0.02375 -0.04225 0.0042
         vertex 0.02025 -0.04225 0.0042
      endloop
   endfacet
endsolid Breadboard. Units = meters